<svg version="1.0" xmlns="http://www.w3.org/2000/svg"
 width="70.000000pt" height="70.000000pt" viewBox="0 0 1376.000000 190.000000"
 preserveAspectRatio="xMidYMid meet">

<g transform="translate(0.000000,928.000000) scale(0.100000,-0.100000)"
fill="rgb(13, 132, 248)" stroke="none">
<path d="M4704 7882 c-31 -33 -37 -44 -73 -112 -19 -36 -44 -81 -55 -100 -11
-19 -33 -60 -50 -90 -16 -30 -33 -56 -38 -58 -4 -2 -8 -8 -8 -13 0 -5 -18 -42
-40 -81 -22 -39 -39 -72 -37 -74 2 -2 847 -6 1878 -10 1592 -4 1886 -8 1952
-20 91 -17 226 -82 302 -145 62 -51 144 -154 185 -231 97 -182 106 -467 19
-641 -16 -32 -29 -63 -29 -68 0 -5 500 -9 1204 -9 l1205 0 22 45 c12 25 26 45
31 45 4 0 8 9 8 19 0 11 4 21 8 23 5 2 23 30 42 63 18 33 50 92 72 130 21 39
43 77 48 85 23 36 76 131 113 200 21 41 45 82 53 91 8 8 14 19 14 23 0 4 29
57 65 117 36 61 65 115 65 120 0 5 5 9 10 9 6 0 10 5 10 11 0 6 56 109 125
230 69 120 125 224 125 229 0 6 3 10 8 10 4 0 13 14 20 30 8 17 19 36 25 43 7
6 21 30 31 52 10 22 23 48 27 57 14 27 11 41 -7 34 -22 -8 -5685 -8 -6590 1
l-721 6 -19 -21z"/>
<path d="M8227 5572 c-49 -109 -293 -283 -495 -351 -34 -12 -70 -25 -80 -30
-26 -14 -151 -50 -228 -65 -38 -8 -105 -23 -149 -33 -76 -17 -179 -18 -2130
-18 l-2050 0 -69 -125 c-38 -69 -103 -186 -145 -260 -42 -74 -77 -138 -79
-142 -2 -5 605 -9 1350 -9 744 -1 1659 -5 2033 -9 752 -8 693 -2 840 -77 72
-37 128 -76 180 -128 41 -41 115 -139 115 -153 0 -7 3 -12 8 -12 8 0 32 -49
32 -67 0 -7 4 -13 8 -13 5 0 14 -22 21 -49 7 -28 18 -54 24 -59 10 -8 1566
-27 2197 -27 l174 0 58 98 c32 54 58 102 58 107 0 5 3 10 8 12 4 2 23 33 42
70 19 37 38 68 43 68 4 0 7 6 7 13 0 6 32 66 71 132 39 66 90 154 112 195 22
41 43 77 46 80 3 3 19 30 35 60 16 30 34 62 41 70 7 8 20 31 30 50 21 42 52
98 68 125 7 11 23 38 35 60 12 22 32 56 43 75 12 19 31 53 42 75 12 22 24 42
27 45 3 3 16 25 29 50 13 25 35 63 48 85 52 84 93 158 93 165 0 8 -596 17
-1705 26 l-770 6 -18 -40z"/>
<path d="M7236 3258 c-31 -106 -146 -340 -186 -378 -3 -3 -31 -40 -64 -83 -95
-126 -336 -333 -466 -402 -138 -72 -291 -144 -320 -150 -19 -4 -37 -10 -40
-14 -7 -10 -109 -40 -250 -75 l-125 -30 -2185 -6 c-1202 -3 -2186 -6 -2187 -8
-11 -17 -90 -159 -129 -232 -11 -19 -21 -37 -24 -40 -3 -3 -14 -22 -25 -42
-11 -21 -23 -38 -27 -38 -5 0 -8 -5 -8 -11 0 -6 -20 -47 -45 -91 -25 -44 -45
-82 -45 -83 0 -4 4002 -16 5954 -18 l1388 -2 55 95 c30 52 77 136 104 187 27
50 63 115 79 144 17 28 45 79 62 113 17 33 33 63 37 66 3 3 18 30 34 60 15 30
41 78 57 105 16 28 50 90 76 140 25 49 49 92 53 95 3 3 25 41 48 85 23 44 53
100 67 125 44 80 52 94 93 170 86 162 116 216 127 230 12 15 46 86 46 95 0 3
-484 5 -1075 5 -852 0 -1076 -3 -1079 -12z"/>
</g>
</svg>