<?xml version="1.0" standalone="no"?>
<!DOCTYPE svg PUBLIC "-//W3C//DTD SVG 20010904//EN"
 "http://www.w3.org/TR/2001/REC-SVG-20010904/DTD/svg10.dtd">
<svg version="1.0" xmlns="http://www.w3.org/2000/svg"
 width="690.000000pt" height="362.000000pt" viewBox="0 0 690.000000 362.000000"
 preserveAspectRatio="xMidYMid meet">
<metadata>
Created by potrace 1.16, written by Peter Selinger 2001-2019
</metadata>
<g transform="translate(0.000000,362.000000) scale(0.100000,-0.100000)"
fill="#000000" stroke="none">
<path d="M4422 2291 c-18 -12 -35 -28 -38 -36 -5 -13 -54 -15 -353 -15 l-346
0 -20 30 c-21 31 -55 41 -55 16 0 -8 5 -18 10 -21 33 -20 -10 -25 -235 -25
-157 0 -245 -4 -245 -10 0 -6 32 -10 75 -10 60 0 75 -3 75 -15 0 -12 -11 -14
-57 -9 -69 7 -109 -6 -125 -41 -16 -35 -3 -46 69 -60 40 -8 59 -17 61 -28 4
-22 -16 -22 -40 0 -27 24 -106 23 -124 -1 -19 -27 -18 -43 6 -63 11 -10 20
-23 20 -29 0 -22 25 -21 70 2 25 13 50 24 57 24 19 0 63 53 63 76 0 31 -24 46
-77 50 -52 4 -58 7 -48 24 8 13 94 9 127 -5 13 -5 21 1 35 29 11 23 24 36 37
37 50 2 271 -3 274 -6 2 -2 -4 -17 -12 -34 -14 -27 -19 -29 -40 -20 -16 8 -34
8 -61 0 -27 -7 -44 -7 -58 1 -11 5 -40 8 -66 5 -80 -9 -131 -97 -82 -141 21
-19 72 -19 78 0 2 7 -8 14 -22 18 -51 13 -16 89 38 84 32 -3 33 -4 20 -50 -4
-14 1 -18 21 -18 18 0 30 8 40 29 23 44 76 50 76 9 0 -11 -9 -36 -21 -54 -18
-29 -19 -35 -5 -40 23 -9 30 -2 92 111 l59 105 78 0 c59 0 78 -3 75 -12 -3 -7
-29 -16 -59 -19 -30 -4 -65 -12 -79 -18 -31 -15 -70 -69 -70 -98 0 -28 31 -53
66 -53 17 0 35 -5 40 -10 16 -16 43 -1 59 31 20 38 64 78 95 86 33 8 50 22 50
40 0 12 -8 14 -35 9 -38 -7 -40 -5 -25 25 10 17 22 19 141 19 99 0 130 -3 127
-12 -3 -8 -26 -13 -64 -13 -100 -1 -164 -48 -164 -122 0 -34 8 -46 38 -62 14
-7 21 -18 18 -26 -9 -25 75 -13 107 15 32 28 36 54 7 46 -11 -3 -29 -9 -41
-12 -11 -3 -34 0 -50 6 -22 9 -29 19 -29 39 0 36 10 48 54 66 27 12 53 14 91
10 52 -7 52 -7 73 29 14 23 29 36 42 36 27 0 23 -14 -30 -110 -54 -98 -58
-112 -29 -108 23 3 29 12 99 143 20 39 45 72 55 73 23 5 16 -17 -41 -118 -50
-91 -53 -103 -23 -98 14 2 32 23 53 63 18 33 45 81 60 108 l28 47 134 0 c107
0 134 -3 134 -14 0 -27 -27 -34 -142 -38 -111 -3 -119 -5 -143 -29 -36 -36
-44 -90 -16 -118 23 -23 79 -28 112 -11 24 14 51 64 43 84 -10 26 -44 20 -44
-8 0 -30 -22 -49 -52 -44 -31 4 -35 37 -8 66 19 20 30 22 116 22 l96 0 -31
-57 c-36 -66 -37 -73 -11 -73 18 0 26 12 112 170 l25 45 86 3 c70 2 87 0 87
-11 0 -11 -17 -16 -57 -19 -103 -8 -163 -55 -163 -127 0 -37 29 -55 76 -48 19
3 36 1 39 -4 12 -18 45 -8 62 19 27 42 63 73 110 93 59 25 60 54 2 44 -34 -6
-40 -5 -34 6 26 46 35 49 142 49 l103 0 0 -25 c0 -14 -12 -38 -26 -52 -23 -23
-31 -25 -80 -20 -31 3 -54 2 -54 -4 0 -13 44 -82 63 -97 23 -20 84 -27 102
-12 23 19 18 30 -16 30 -31 0 -69 15 -69 28 0 22 140 45 159 26 3 -3 -4 -24
-17 -46 -25 -46 -23 -53 11 -44 15 3 33 24 51 58 63 121 78 144 104 165 l27
23 -343 0 c-330 0 -343 1 -337 19 10 34 -18 42 -167 47 -133 5 -145 4 -176
-15z"/>
<path d="M2183 2225 c-41 -29 -24 -85 24 -85 27 0 31 25 6 35 -17 6 -17 7 1
21 11 8 23 14 27 14 12 0 39 -30 39 -43 -1 -30 -20 -40 -91 -45 -88 -5 -119
-26 -119 -78 0 -82 121 -70 204 19 36 39 47 21 17 -27 -22 -35 -16 -51 13 -40
8 3 41 53 73 110 39 70 64 104 76 104 9 0 17 -3 17 -7 0 -5 -25 -51 -54 -103
-52 -89 -58 -118 -25 -105 8 3 36 45 63 93 69 122 69 122 137 122 32 0 60 -4
64 -10 3 -5 -1 -25 -9 -44 -20 -49 -52 -56 -134 -30 l-23 7 16 -39 c30 -73 98
-118 149 -98 29 11 18 34 -16 34 -29 1 -78 25 -67 33 2 2 23 9 47 16 48 14 82
56 82 104 l0 27 135 0 c111 0 135 -3 135 -14 0 -22 -17 -29 -89 -33 -107 -6
-128 -11 -156 -45 -53 -62 -10 -148 61 -123 40 14 41 33 2 37 -41 4 -49 30
-17 64 19 20 32 24 86 24 39 0 63 -4 63 -11 0 -6 -12 -33 -27 -59 -15 -27 -25
-52 -21 -55 18 -18 48 14 98 102 30 53 63 104 74 114 18 17 17 18 -15 23 -19
3 -182 5 -363 3 -253 -1 -330 -5 -333 -14 -3 -8 5 -13 22 -13 23 0 25 -3 19
-22 -7 -26 -33 -58 -46 -58 -4 0 -8 15 -8 33 0 17 -7 40 -15 51 -19 26 -93 32
-122 11z"/>
<path d="M1855 1705 c-36 -63 -63 -119 -60 -125 10 -16 143 -4 173 16 23 15
25 15 19 0 -5 -12 0 -16 18 -16 14 0 25 5 25 11 0 6 14 30 30 55 26 37 36 44
63 44 54 0 63 -13 38 -53 -26 -42 -27 -57 -3 -57 11 0 35 32 70 95 30 52 58
98 63 101 5 3 9 14 9 25 0 35 -30 20 -62 -31 -30 -49 -32 -50 -79 -50 -27 0
-49 3 -49 8 0 4 9 21 20 37 11 17 20 36 20 43 0 19 -40 14 -47 -5 -4 -10 -21
-42 -40 -71 -18 -29 -33 -56 -33 -61 0 -5 -7 -14 -15 -21 -12 -10 -15 -7 -21
15 -5 20 -1 32 20 54 31 32 34 76 7 91 -11 5 -38 10 -59 10 l-40 0 -67 -115z"/>
<path d="M2310 1700 c-116 -111 -123 -120 -96 -120 17 0 39 9 50 19 12 11 37
20 56 21 58 3 62 2 55 -20 -5 -16 -2 -20 17 -20 21 0 25 7 37 78 21 125 24
162 15 161 -5 0 -65 -54 -134 -119z"/>
<path d="M2536 1768 c-18 -29 -50 -83 -70 -120 -37 -67 -37 -68 -14 -68 16 0
29 11 43 37 27 50 40 51 54 3 9 -30 17 -40 33 -40 17 0 19 4 13 23 -18 59 -17
65 7 72 40 12 78 56 78 90 0 42 -16 55 -67 55 -41 0 -45 -2 -77 -52z"/>
<path d="M2805 1773 c-27 -25 -83 -76 -122 -113 -40 -37 -73 -70 -73 -74 0
-15 45 -4 72 19 39 33 108 36 108 5 0 -20 25 -38 36 -27 5 5 44 208 44 230 0
15 -17 5 -65 -40z"/>
<path d="M2927 1813 c-14 -13 -6 -33 13 -33 29 0 26 -12 -25 -102 -25 -44 -45
-84 -45 -90 0 -5 9 -8 21 -6 13 2 31 21 48 53 58 109 83 145 101 145 29 0 50
11 50 26 0 11 -18 14 -78 14 -43 0 -82 -3 -85 -7z"/>
<path d="M3147 1758 c-18 -35 -49 -89 -67 -121 l-32 -58 67 3 c44 2 70 8 73
16 2 8 -8 12 -32 12 -41 0 -41 1 -21 39 16 33 33 41 81 41 24 0 34 5 34 15 0
10 -11 15 -35 15 -39 0 -42 6 -19 38 12 17 25 22 58 22 40 0 56 11 56 36 0 2
-29 4 -64 4 l-64 0 -35 -62z"/>
<path d="M3431 1736 c-54 -91 -81 -142 -81 -151 0 -3 29 -5 65 -5 51 0 65 3
65 15 0 10 -10 15 -30 15 -61 0 -20 72 43 76 47 3 47 3 47 19 0 10 -10 15 -30
15 -34 0 -33 0 -20 34 8 21 16 25 57 28 36 2 49 7 51 21 3 15 -5 17 -57 17
l-60 0 -50 -84z"/>
<path d="M3653 1799 c-81 -40 -128 -150 -87 -207 12 -18 25 -22 69 -22 44 0
56 4 65 20 10 19 8 19 -33 14 -34 -5 -47 -2 -61 12 -33 32 -3 108 57 144 39
24 74 25 98 4 21 -19 39 -11 39 17 0 41 -81 51 -147 18z"/>
<path d="M3837 1813 c-14 -13 -6 -33 13 -33 11 0 20 -3 20 -6 0 -4 -16 -34
-36 -68 -21 -33 -46 -76 -56 -93 l-20 -33 24 0 c20 0 34 17 80 98 50 88 59 97
89 102 22 3 35 11 37 23 3 15 -5 17 -71 17 -40 0 -77 -3 -80 -7z"/>
<path d="M4033 1811 c-27 -7 -156 -220 -143 -235 15 -15 39 2 60 44 11 22 24
40 28 40 4 0 13 -20 20 -45 9 -35 17 -45 33 -45 18 0 20 4 14 43 -7 42 -6 44
25 57 49 20 80 102 48 127 -18 14 -58 20 -85 14z"/>
<path d="M4222 1803 c-47 -23 -91 -72 -104 -116 -10 -33 -9 -44 7 -73 35 -66
131 -70 204 -8 41 36 53 35 26 0 -21 -28 -19 -38 7 -34 16 2 35 25 67 81 l44
79 41 -78 c23 -42 45 -78 51 -78 17 -2 143 229 132 240 -16 16 -46 -14 -82
-81 -22 -41 -42 -75 -45 -75 -3 0 -22 34 -43 75 -20 41 -42 75 -49 75 -7 0
-32 -36 -56 -80 -43 -80 -60 -102 -42 -54 40 105 -52 180 -158 127z m114 -48
c39 -59 -34 -155 -118 -155 -42 0 -58 15 -58 53 0 94 131 170 176 102z"/>
<path d="M4835 1804 c-89 -46 -134 -156 -87 -214 21 -25 89 -38 121 -21 32 18
26 35 -10 27 -43 -8 -89 17 -89 50 0 35 24 77 60 108 40 33 104 36 120 6 13
-24 30 -18 30 10 0 45 -86 65 -145 34z"/>
<path d="M5018 1800 c-32 -24 -38 -70 -12 -91 23 -19 45 -66 38 -83 -9 -25
-48 -29 -84 -11 -42 21 -61 6 -31 -24 29 -29 112 -30 141 -1 30 30 27 90 -5
120 -47 44 -14 89 42 59 30 -16 49 -1 30 25 -21 28 -87 32 -119 6z"/>
</g>
</svg>
